<?xml version="1.0" encoding="utf-8"?>
<!-- Generator: Adobe Illustrator 23.0.1, SVG Export Plug-In . SVG Version: 6.00 Build 0)  -->
<svg version="1.1" id="Layer_1" xmlns="http://www.w3.org/2000/svg" xmlns:xlink="http://www.w3.org/1999/xlink" x="0px" y="0px"
	 viewBox="0 0 1000 1000" style="enable-background:new 0 0 1000 1000;" xml:space="preserve">
<style type="text/css">
	.st0{fill:#EEEEEE;stroke:#FDFFFF;stroke-miterlimit:10;}
	.st1{fill:#FFFFFF;}
	.st2{fill:#C91127;}
	.st3{fill:#9B0D24;}
	.st4{fill:#E0E0E0;}
	.st5{fill:#A5112A;}
</style>
<polygon class="st0" points="347.5,872 500,919 500,709 347.5,662 "/>
<polygon class="st0" points="653,872 500.5,919 500.5,709 653,662 "/>
<polygon class="st1" points="653,662 501,709 347,662 501,610 "/>
<polygon class="st2" points="525,661 449,695 407,680 495,640 "/>
<polygon class="st2" points="468,661 547,697 589,682 498,640 "/>
<path class="st2" d="M487.68,628.98c-19.51-25.3-59.74-63.44-93.6-4.98c-6.14,10.6-4.36,24.26,4.72,32.49
	c9.7,8.79,28.74,16.44,65.94,15.01c0,0,0.33,0.04,0.92,0.07C488.06,672.69,501.38,646.75,487.68,628.98z"/>
<path class="st3" d="M487.58,661.48c0,0-43.69-64.94-96.13-31.21c0,0-8.16,24.07,23.2,35.4c0,0,16.36,6.33,35.56,5.91
	C450.2,671.58,480,676,487.58,661.48z"/>
<path class="st2" d="M511.02,628.98c19.51-25.3,59.74-63.44,93.6-4.98c6.14,10.6,4.36,24.26-4.72,32.49
	c-9.7,8.79-28.74,16.44-65.94,15.01c0,0-0.33,0.04-0.92,0.07C510.63,672.69,497.32,646.75,511.02,628.98z"/>
<path class="st3" d="M511.12,661.48c0,0,43.69-64.94,96.13-31.21c0,0,8.16,24.07-23.2,35.4c0,0-16.36,6.33-35.56,5.91
	C548.49,671.58,518.69,676,511.12,661.48z"/>
<circle class="st3" cx="497.87" cy="657.29" r="17.36"/>
<polygon class="st2" points="442,901 401,888 407,680 449,695 "/>
<rect x="497" y="360" class="st4" width="6" height="280"/>
<polygon class="st2" points="555,902 595,890 589,682 547,697 "/>
<g>
	<path class="st2" d="M620,201.79c0,66.27-50.81,148.93-119.61,147.36C432.88,347.61,380,268.06,380,201.79s53.73-120,120-120
		S620,135.51,620,201.79z"/>
	<polygon class="st2" points="499.61,342.89 488.66,364 511.34,364 	"/>
	<path class="st2" d="M579.35,379.64"/>
	<path class="st5" d="M500.39,81.79c0,0,132.12,92.25,18.76,265.8c0,0,103.19-21.11,100.58-153.74
		C619.73,193.84,613.75,86.48,500.39,81.79z"/>
</g>
</svg>
