<?xml version="1.0" encoding="utf-8"?>
<!-- Generator: Adobe Illustrator 23.0.1, SVG Export Plug-In . SVG Version: 6.00 Build 0)  -->
<svg version="1.1" id="Layer_1" xmlns="http://www.w3.org/2000/svg" xmlns:xlink="http://www.w3.org/1999/xlink" x="0px" y="0px"
	 viewBox="0 0 1000 1000" style="enable-background:new 0 0 1000 1000;" xml:space="preserve">
<style type="text/css">
	.st0{fill:#FFFFFF;}
</style>
<g>
	<path class="st0" d="M440.11,574.96c0,0.68-0.01,1.36-0.03,2.04H273.03c-0.01-0.68-0.03-1.36-0.03-2.04
		c0-46.15,37.4-83.56,83.56-83.56c8.1,0,15.92,1.15,23.33,3.3C414.68,504.8,440.11,536.91,440.11,574.96z"/>
	<path class="st0" d="M622.17,551.19c0,8.84-0.9,17.47-2.61,25.81H369.36c-1.71-8.34-2.61-16.97-2.61-25.81
		c0-20.27,4.73-39.46,13.14-56.48c20.84-42.2,64.32-71.23,114.58-71.23c41.43,0,78.26,19.74,101.59,50.31
		C612.45,495.26,622.17,522.08,622.17,551.19z"/>
	<path class="st0" d="M726.98,577h-209.8c-0.05-3.36,0.04-6.74,0.31-10.15c3.63-45.76,36.29-82.31,78.56-93.07
		c10.9-2.77,22.44-3.83,34.31-2.89C685.95,475.29,728,522.15,726.98,577z"/>
</g>
</svg>
