<?xml version="1.0" encoding="utf-8"?>
<!-- Generator: Adobe Illustrator 23.0.1, SVG Export Plug-In . SVG Version: 6.00 Build 0)  -->
<svg version="1.1" id="Layer_1" xmlns="http://www.w3.org/2000/svg" xmlns:xlink="http://www.w3.org/1999/xlink" x="0px" y="0px"
	 viewBox="0 0 1000 1000" style="enable-background:new 0 0 1000 1000;" xml:space="preserve">
<style type="text/css">
	.st0{fill:#FFFFFF;}
</style>
<g>
	<path class="st0" d="M813,579H497c0.33-52.87,26.62-99.57,66.77-128.01C589.54,432.73,621.02,422,655,422
		C741.93,422,812.46,492.2,813,579z"/>
	<path class="st0" d="M635,579H332c0.1-31.27,9.67-60.3,26-84.39C385.24,454.42,431.28,428,483.5,428
		c29.48,0,56.99,8.42,80.27,22.99C606.41,477.68,634.82,525.02,635,579z"/>
	<path class="st0" d="M425.22,579H186.78c11.91-54.89,60.76-96,119.22-96c18.6,0,36.22,4.16,52,11.61
		C391.8,510.55,417.1,541.57,425.22,579z"/>
</g>
</svg>
